<svg xmlns="http://www.w3.org/2000/svg" xmlns:xlink="http://www.w3.org/1999/xlink" viewBox="0 0 503.92 351.37"><defs><style>.cls-1{isolation:isolate;}.cls-2{fill:#fff;}.cls-3{opacity:0.4;mix-blend-mode:multiply;fill:url(#radial-gradient);}.cls-4{fill:#005ea6;}</style><radialGradient id="radial-gradient" cx="251.96" cy="-7784.06" r="243.3" gradientTransform="translate(0 1162.16) scale(1 0.11)" gradientUnits="userSpaceOnUse"><stop offset="0" stop-color="#010101"/><stop offset="1" stop-color="#fff" stop-opacity="0"/></radialGradient></defs><g class="cls-1"><g id="Layer_1" data-name="Layer 1"><circle class="cls-2" cx="256.75" cy="156.73" r="146.99"/><ellipse class="cls-3" cx="251.96" cy="315.15" rx="243.3" ry="26.47"/><path class="cls-4" d="M321.87,173.39c7.74-.65,13.84,1.68,17.36,8.57,3.13,6.13,2.84,12.52-1.87,17.51-12.28,13-25.35,25.21-41.28,33.7-16.69,8.9-34.55,11.26-53.24,8.45-19.56-2.94-39.18-5.54-58.77-8.29-3.74-.52-5.32-2.2-5.34-5.89,0-5.42-.16-10.85.07-16.26.62-14.16,9.27-24.7,23-28.25.5-.13,1-.3,1.78-.52-11.41-17.25-15.19-35.78-10.49-55.74a67.34,67.34,0,0,1,22.66-36.51C239,70.38,272,68.66,298.07,85.63,321.33,100.78,339.16,136.07,321.87,173.39Zm-81.54,1.16c-1.17-4.72-2.45-8.86-3.15-13.09a4.71,4.71,0,0,1,4.46-5.65c2.88-.22,4.77,1.64,5.36,4.92a27.44,27.44,0,0,0,1.83,6.38c.4.92,1.94,2,2.76,1.91,1.73-.3,3.51-1,3.44-3.58-.16-5.23-.07-10.46.05-15.69,0-1.82-.66-2.51-2.34-3.14-9-3.38-14.58-9.74-15.5-19.4-1-10.41,3.54-18.24,12.86-22.77,3.45-1.67,5.63-3,5.08-7.28-.34-2.56,2.22-4.37,4.86-4.3a4.68,4.68,0,0,1,4.74,4.55,9.87,9.87,0,0,1,0,2c-.25,2.12.31,3.22,2.68,4,8.89,2.82,15.27,11.84,15.32,21,0,3.13-1.92,5.39-4.72,5.55-2.61.15-4.8-1.92-5.16-4.86-.12-1-.18-2-.4-3-.94-4.25-4.2-7.86-7.68-8.4,0,7.3.08,14.58-.05,21.85,0,2.13.66,3,2.7,3.72a23,23,0,0,1,14,29.59,5.1,5.1,0,0,0,.29,3.8,18.15,18.15,0,0,1-8.84,26.35c-.92.38-1.8.87-3.32,1.62a12.25,12.25,0,0,0,1.52,0A58.75,58.75,0,1,0,245.84,85.83c-41.75,10.47-58.6,60.38-31.73,93.88a6.16,6.16,0,0,0,5.35,2.59,18.16,18.16,0,0,0,9.08-2.09C232.62,178,236.89,176.19,240.33,174.55Zm23,36.16v.23c-6,0-12,0-17.94,0-1.17,0-2.74,0-3.43-.75a8.63,8.63,0,0,1-2.42-4.36c-.34-2.26,1.28-3.75,3.32-4.65,8.72-3.83,17.42-7.69,26.16-11.46a8.2,8.2,0,0,0,5.22-6.1,7.51,7.51,0,0,0-3.1-7.88c-2.82-2.16-6-1.9-9-.46-8.86,4.18-17.82,8.2-26.49,12.75-6,3.13-11.93,5-18.7,4.36a89.43,89.43,0,0,0-9-.05,19.16,19.16,0,0,0-19,17.14c-.37,3.9-.13,7.85-.39,11.75-.15,2.22.77,2.86,2.8,3.13q23.16,3.13,46.29,6.44c8.89,1.28,17.76,2.55,26.77,1.64a72.8,72.8,0,0,0,39.76-16.48c8.41-7,16.47-14.32,24.54-21.68,3.35-3.06,3.16-7.26,0-9.73-2.47-1.94-5.89-1.65-8.62.93-4.75,4.49-9.43,9.05-14.09,13.63-6.62,6.5-14.48,10.7-23.7,11.52C276.05,211.17,269.65,210.71,263.3,210.71Zm-8.52-74.3v-23a12.38,12.38,0,0,0,0,23Zm10,12.78c0,3.27,0,6.23,0,9.19-.07,5.19-.08,5.18,4.91,6,.72.12,1.43.27,2.1.4C274.48,158.93,271.26,151.49,264.81,149.19Z"/></g></g></svg>