<svg xmlns="http://www.w3.org/2000/svg" xmlns:xlink="http://www.w3.org/1999/xlink" viewBox="0 0 503.92 351.37"><defs><style>.cls-1{isolation:isolate;}.cls-2{fill:#fff;}.cls-3{opacity:0.4;mix-blend-mode:multiply;fill:url(#radial-gradient);}.cls-4{fill:#005ea6;}</style><radialGradient id="radial-gradient" cx="251.96" cy="-7784.06" r="243.3" gradientTransform="translate(0 1162.16) scale(1 0.11)" gradientUnits="userSpaceOnUse"><stop offset="0" stop-color="#010101"/><stop offset="1" stop-color="#fff" stop-opacity="0"/></radialGradient></defs><g class="cls-1"><g id="Layer_1" data-name="Layer 1"><circle class="cls-2" cx="256.75" cy="156.73" r="146.99"/><ellipse class="cls-3" cx="251.96" cy="315.15" rx="243.3" ry="26.47"/><path class="cls-4" d="M353.57,207.55V194.93A24.14,24.14,0,0,0,332.46,171V137.62a21.14,21.14,0,0,0-21.11-21.11H287.12a56.18,56.18,0,0,0-56.06-54.28h-2.29a56.15,56.15,0,0,0-43.14,92.1l10.12,12.15a30.4,30.4,0,0,1,6.86,16.4,9,9,0,0,0,.16,18.08v3a27.19,27.19,0,0,0,21.11,26.45v3.71A15.1,15.1,0,0,0,239,249.21h27.15a15.1,15.1,0,0,0,15.08-15.08V143.59a56.22,56.22,0,0,0,5.84-21h24.32a15.1,15.1,0,0,1,15.08,15.08V171a24.14,24.14,0,0,0-21.12,23.92v12.62a9,9,0,0,0,0,17v15.64a9.05,9.05,0,0,0,18.1,0V225.09h12.06v15.08a9.05,9.05,0,0,0,18.1,0V224.53a9,9,0,0,0,0-17ZM190.71,151V110.48h30.16v30.16h-18.1v25.24a35.83,35.83,0,0,0-2.39-3.26Zm24.13-46.56h-18.1v-6h18.1Zm54.28,6V151l-9.67,11.61a35.83,35.83,0,0,0-2.39,3.26V140.64H239V110.48ZM251,146.67v36.19H208.8V146.67Zm-51.27,45.24a3,3,0,0,1,3-3h54.29a3,3,0,0,1,0,6H202.77a3,3,0,0,1-3-3Zm9,12.06v-3H251v3a21.12,21.12,0,1,1-42.23,0Zm66.36,30.16a9.06,9.06,0,0,1-9.05,9.05H239a9.05,9.05,0,0,1-9-9.05v-3A27.18,27.18,0,0,0,257.06,204v-3a9,9,0,0,0,.16-18.08,30.4,30.4,0,0,1,6.86-16.4l10.12-12.15c.34-.4.63-.83.95-1.24v81Zm0-92V104.45h-6V92.38h-6v12.07h-6V86.35h-6v18.1h-6V92.38h-6v12.07h-6v36.19h-6V104.45h-6V92.38H190.71v12.07h-6v37.68a50.05,50.05,0,0,1,44.09-73.87h2.29a50.05,50.05,0,0,1,44.1,73.87Zm54.28,34.7a18.12,18.12,0,0,1,18.1,18.1V207H311.35V194.93a18.11,18.11,0,0,1,18.09-18.1Zm-12.06,63.34a3,3,0,0,1-6,0V225.09h6Zm27.14,3a3,3,0,0,1-3-3V225.09h6v15.08a3,3,0,0,1-3,3Zm6-24.13H308.33a3,3,0,1,1,0-6h42.22a3,3,0,1,1,0,6ZM251,122.54h-6v-6h6Zm12.06,0h-6v-6h6Zm0,12.07h-6v-6h6Zm-12.06,0h-6v-6h6Zm-48.26-12.07h-6v-6h6Zm12.07,0h-6v-6h6Zm-12.07,12.07h-6v-6h6Zm12.07,0h-6v-6h6Zm18.09,24.13h-6v-6h6Zm0,12.06h-6v-6h6Zm-12.06,0h-6v-6h6Zm0-12.06h-6v-6h6Zm24.13,0h-6v-6h6Zm0,12.06h-6v-6h6Z"/></g></g></svg>