<svg xmlns="http://www.w3.org/2000/svg" xmlns:xlink="http://www.w3.org/1999/xlink" viewBox="0 0 503.92 351.37"><defs><style>.cls-1{isolation:isolate;}.cls-2{fill:#fff;}.cls-3{opacity:0.4;mix-blend-mode:multiply;fill:url(#radial-gradient);}.cls-4{fill:#005ea6;}</style><radialGradient id="radial-gradient" cx="251.96" cy="-7784.06" r="243.3" gradientTransform="translate(0 1162.16) scale(1 0.11)" gradientUnits="userSpaceOnUse"><stop offset="0" stop-color="#010101"/><stop offset="1" stop-color="#fff" stop-opacity="0"/></radialGradient></defs><g class="cls-1"><g id="Layer_1" data-name="Layer 1"><circle class="cls-2" cx="256.75" cy="156.73" r="146.99"/><ellipse class="cls-3" cx="251.96" cy="315.15" rx="243.3" ry="26.47"/><path class="cls-4" d="M226.64,224.7a3.1,3.1,0,1,1-3.1-3.1,3.1,3.1,0,0,1,3.1,3.1Zm0,0"/><path class="cls-4" d="M232.69,197.43a3.9,3.9,0,0,0,5-1.14l62.17-85.75a3.89,3.89,0,0,0-3.15-6.17H280.23L300,71.13a3.88,3.88,0,0,0-3.34-5.87H250.07a3.88,3.88,0,0,0-3.77,2.94l-15.54,62.44a3.88,3.88,0,0,0,3.77,4.82h17.72l-21.36,57.18a3.89,3.89,0,0,0,1.8,4.79Zm28.8-64.5a3.89,3.89,0,0,0-3.64-5.24H239.5L253.11,73h36.75l-19.81,33.24a3.89,3.89,0,0,0,3.34,5.88h15.7l-40.91,56.41Zm0,0"/><path class="cls-4" d="M293.28,48.07V28a3.35,3.35,0,1,0-6.7,0v20.1a3.35,3.35,0,1,0,6.7,0Zm0,0"/><path class="cls-4" d="M315.82,52.34,330,38.12a3.35,3.35,0,1,0-4.74-4.74L311.09,47.6a3.35,3.35,0,0,0,4.73,4.74Zm0,0"/><path class="cls-4" d="M270.74,50.37a3.34,3.34,0,0,0,0-4.73L256.52,31.42a3.35,3.35,0,1,0-4.74,4.74L266,50.37a3.35,3.35,0,0,0,4.74,0Zm0,0"/><ellipse class="cls-2" cx="253.65" cy="176.24" rx="28.83" ry="36.75"/><path class="cls-4" d="M263.75,148.31a13.3,13.3,0,0,0-7.46,2.27,13.4,13.4,0,0,0-22.7-4.43,13.38,13.38,0,0,0-20.1,0A13.4,13.4,0,0,0,190,155v18.77a16.83,16.83,0,0,0-6.7,13.4,57,57,0,0,0,22.78,45.56,10.07,10.07,0,0,1,4,8V269.6a3.35,3.35,0,0,0,3.35,3.35H267.1a3.35,3.35,0,0,0,3.35-3.35V241.32a134,134,0,0,0,6.7-41.83V161.71a13.4,13.4,0,0,0-13.4-13.4Zm0,6.7a6.7,6.7,0,0,1,6.7,6.7v22.11a6.71,6.71,0,1,1-13.41,0V161.71a6.72,6.72,0,0,1,6.71-6.7Zm-20.11-6.7a6.7,6.7,0,0,1,6.7,6.7v22.11a6.7,6.7,0,0,1-13.4,0V155a6.71,6.71,0,0,1,6.7-6.7Zm-20.1,0a6.7,6.7,0,0,1,6.7,6.7v15.41h-13.4V155a6.7,6.7,0,0,1,6.7-6.7Zm-20.11,0a6.71,6.71,0,0,1,6.71,6.7v15.41H200.08a17.07,17.07,0,0,0-3.35.34V155a6.71,6.71,0,0,1,6.7-6.7Zm13.41,117.94V250.84h46.91v15.41Zm52-46.38c-2.16,13.28-5.06,19.31-5.06,20.92v3.35H216.84v-3.35a16.76,16.76,0,0,0-6.7-13.41A50.28,50.28,0,0,1,190,187.18a10.07,10.07,0,0,1,10.05-10.06H229.9a16.77,16.77,0,0,1-16.41,13.41h-6.71a3.35,3.35,0,0,0,0,6.7h3.36A13.43,13.43,0,0,1,223.28,208a3.35,3.35,0,0,0,6.57-1.31A20,20,0,0,0,223,195.2a23.52,23.52,0,0,0,10.54-9.28,13.36,13.36,0,0,0,17.56,2.33,13.37,13.37,0,0,0,19.35,7.17v4.07a128.88,128.88,0,0,1-1.64,20.38Zm0,0"/></g></g></svg>