<svg id="Layer_1" data-name="Layer 1" xmlns="http://www.w3.org/2000/svg" viewBox="0 0 735.67 59.81"><defs><style>.cls-1,.cls-2{fill:#005b9f;}.cls-1{fill-rule:evenodd;}</style></defs><path class="cls-1" d="M50.69,0H8.13A8.13,8.13,0,0,0,0,8.15V50.71a8.14,8.14,0,0,0,8.13,8.14H50.69a8.14,8.14,0,0,0,8.13-8.14V8.15A8.13,8.13,0,0,0,50.69,0ZM5.13,8.44A3.34,3.34,0,0,1,8.47,5.09H21.62A12.56,12.56,0,0,1,10.11,22.72a12.37,12.37,0,0,1-5-1Zm5,29.7a1.44,1.44,0,0,1-1.44,1.44H6.53A1.43,1.43,0,0,1,5.1,38.14V26.66a1.42,1.42,0,0,1,1.43-1.43H8.71a1.43,1.43,0,0,1,1.44,1.43Zm15.05-2.4-1.89,1.1a1.44,1.44,0,0,1-2-.53l-5.74-9.94a1.43,1.43,0,0,1,.53-2L18,23.31a1.44,1.44,0,0,1,2,.53l5.73,9.94A1.43,1.43,0,0,1,25.2,35.74Zm12-12.43-1.1,1.9a1.42,1.42,0,0,1-2,.52L24.17,20A1.42,1.42,0,0,1,23.65,18l1.09-1.9a1.44,1.44,0,0,1,2-.53l9.94,5.74A1.44,1.44,0,0,1,37.17,23.31Zm2.4-14.59a1.43,1.43,0,0,1-1.44,1.43H26.66a1.44,1.44,0,0,1-1.44-1.43V6.53a1.44,1.44,0,0,1,1.44-1.44H38.13a1.43,1.43,0,0,1,1.44,1.44Z"/><path class="cls-1" d="M95.11,48.77c9.11,0,14.5-4,14.5-10.66,0-7.55-7.48-9-12.14-10-4.52-.88-7-1.35-7-3.71,0-2.09,2-3.24,5.59-3.24,3.85,0,8.5.88,11.67,3.31.21.2,1.76-1.35,1.76-3.85,0-3.77-5.06-6.13-14-6.13-8.37,0-13.76,4.25-13.76,10.65,0,7.56,7.08,8.91,11.6,10,4.52.87,7.08,1.41,7.08,3.84,0,2.09-2,3.17-5.8,3.17A18.15,18.15,0,0,1,82.83,38c-.2-.2-2.22,1.62-2.22,4,0,3.77,4.79,6.74,14.5,6.74Zm35.82.14c10.52,0,17.6-6.95,17.6-17.21s-7.08-17.33-17.47-17.33-17.67,7.08-17.67,17.27,7.08,17.27,17.54,17.27Zm.07-7.49c-5.33,0-9.25-4.12-9.25-9.78s3.92-9.85,9.25-9.85,9.17,4.18,9.17,9.91-4,9.72-9.17,9.72Zm27.59,6.88h1c2.43,0,4.18-1.08,4.18-4.52v-35c0-6.14-3.1-7.62-5.94-7.62-1.89,0-3.57.74-3.57,1.08V43.78c0,3.51,1.82,4.52,4.32,4.52Zm25.16-5.74c-3.17,0-5.13-1.55-5.13-4,0-3.58,3.84-5.06,11.4-5.27l1.75-.06v1.88c0,4.32-3.23,7.42-8,7.42Zm6.94-14.5c-14.5.2-21.18,3.58-21.18,11.2,0,5.67,4.12,9.51,11.07,9.51A13.48,13.48,0,0,0,192,43.24c.54,3.71,2.63,5.26,5.59,5.26,1.83,0,3.58-.61,3.58-1.08V27.93c0-8.91-5.06-13.56-15.52-13.56-10,0-13.62,1.41-13.62,4.65,0,4.32,2,4.19,2,4,4.52-1.08,6.21-1.89,10.8-1.68,4.38.2,7,2.42,7,6.74Zm26.72-7.69c-.54-4.52-3.31-5.6-5.81-5.6-1.88,0-3.57.81-3.57,1.08V43.78c0,3.51,1.69,4.52,4.32,4.52h1c2.43,0,4.18-1.08,4.18-4.52V33.93c0-6.68,3.17-11.13,8.77-12.14,4.05-.68,4.72.74,5.26-1.89.74-3.44-1.68-6.48-6.81-5.53-2.63.47-5,2.22-7.35,6Z"/><path class="cls-1" d="M316.16,48.3h1c2.43,0,4.19-1.08,4.19-4.52v-35c0-6.14-3.11-7.62-5.94-7.62-1.89,0-3.58.74-3.58,1.08V43.78c0,3.51,1.82,4.52,4.32,4.52Zm35.42-5.2c.74,4.12,3.23,5.2,5.66,5.2,2,0,3.58-.74,3.58-1.08V19.36c0-3.51-1.69-4.59-4.32-4.59h-.95c-2.49,0-4.25,1.15-4.25,4.59V36.63A7.77,7.77,0,0,1,344.22,41c-4.05,0-6.2-2.7-6.2-7.09V19.36c0-3.51-1.82-4.59-4.32-4.59h-1c-2.43,0-4.18,1.15-4.18,4.59V35.28c0,7.62,3.57,13.63,12.2,13.63a12.47,12.47,0,0,0,10.87-5.81ZM377.28,20c-.75-4.11-3.24-5.26-5.74-5.26-1.89,0-3.57.81-3.57,1.08V43.78c0,3.51,1.68,4.52,4.31,4.52h1c2.42,0,4.18-1.08,4.18-4.52V26.38A7.67,7.67,0,0,1,384,22.33q5.67,0,5.67,6.88V43.78c0,3.51,1.82,4.52,4.32,4.52h1c2.43,0,4.18-1.08,4.18-4.52V26.38a7.67,7.67,0,0,1,6.54-4.05c3.85,0,5.74,2.22,5.74,6.68V43.78c0,3.51,1.68,4.52,4.31,4.52h.95c2.49,0,4.25-1.08,4.25-4.52V27.46c0-7.83-3.51-13.09-11.88-13.09-5.46,0-8.9,3-11.13,6.74-1.55-4.25-5.05-6.74-10.52-6.74A11.7,11.7,0,0,0,377.28,20ZM432.86,9.65c3.31,0,5.26-1.83,5.26-4.86S436.17,0,432.86,0s-5.33,1.82-5.33,4.79,2,4.86,5.33,4.86Zm.54,38.65c2.43,0,4.18-1.08,4.18-4.52V19.36c0-3.51-1.62-4.59-4.25-4.59h-1c-2.43,0-4.25,1.15-4.25,4.59V43.78c0,3.51,1.82,4.52,4.32,4.52Zm21-28.13c-.74-4.32-3.31-5.4-5.8-5.4-1.89,0-3.58.81-3.58,1.08V43.78c0,3.51,1.69,4.52,4.32,4.52h1c2.43,0,4.18-1.08,4.18-4.52V26.65a7.79,7.79,0,0,1,7.29-4.32c3.84,0,6.07,2.7,6.07,7.08V43.78c0,3.51,1.69,4.52,4.32,4.52h1c2.43,0,4.18-1.08,4.18-4.52V28c0-7.55-3.64-13.62-12.28-13.62a12.2,12.2,0,0,0-10.72,5.8ZM500,48.91c10.52,0,17.6-6.95,17.6-17.21s-7.08-17.33-17.47-17.33-17.67,7.08-17.67,17.27S489.52,48.91,500,48.91Zm.07-7.49c-5.33,0-9.25-4.12-9.25-9.78s3.92-9.85,9.25-9.85,9.17,4.18,9.17,9.91-4,9.72-9.17,9.72Zm45.8,1.68c.74,4.12,3.24,5.2,5.66,5.2,2,0,3.58-.74,3.58-1.08V19.36c0-3.51-1.69-4.59-4.32-4.59h-.94c-2.5,0-4.25,1.15-4.25,4.59V36.63A7.78,7.78,0,0,1,538.5,41c-4,0-6.21-2.7-6.21-7.09V19.36c0-3.51-1.82-4.59-4.32-4.59h-1c-2.43,0-4.18,1.15-4.18,4.59V35.28c0,7.62,3.57,13.63,12.21,13.63a12.45,12.45,0,0,0,10.86-5.81Zm28.47,5.67c9.1,0,14.5-4,14.5-10.66,0-7.55-7.49-9-12.14-10-4.52-.88-7-1.35-7-3.71,0-2.09,2-3.24,5.6-3.24,3.84,0,8.5.88,11.67,3.31.2.2,1.75-1.35,1.75-3.85,0-3.77-5.06-6.13-14-6.13-8.36,0-13.76,4.25-13.76,10.65,0,7.56,7.08,8.91,11.6,10,4.52.87,7.09,1.41,7.09,3.84,0,2.09-2,3.17-5.81,3.17A18.14,18.14,0,0,1,562,38c-.2-.2-2.23,1.62-2.23,4,0,3.77,4.79,6.74,14.51,6.74Zm23.81-.27h1.21c3,0,4.59-1.48,4.59-4.45V43.1c0-3-1.55-4.45-4.59-4.45h-1.21c-3,0-4.46,1.49-4.46,4.45v.95q0,4.46,4.46,4.45Zm26.57.41c9.85,0,14.24-5.33,14.24-8.37,0-4-4.25-4.86-4.46-4.45-1.28,3.17-4.78,5.19-9.37,5.19-5.2,0-9-4-9-9.64s3.77-9.58,9-9.58c4.65,0,7.89,2.16,9.44,5.19.2.41,4.39-.87,4.39-4.58,0-3.11-4.19-8.23-14.24-8.23s-17.33,7.15-17.33,17.2,7.15,17.27,17.33,17.27Zm34.88,0c10.52,0,17.6-6.95,17.6-17.21s-7.08-17.33-17.47-17.33S642,21.45,642,31.64s7.08,17.27,17.54,17.27Zm.07-7.49c-5.33,0-9.25-4.12-9.25-9.78s3.92-9.85,9.25-9.85,9.17,4.18,9.17,9.91-4,9.72-9.17,9.72ZM692,20c-.75-4.11-3.24-5.26-5.74-5.26-1.89,0-3.57.81-3.57,1.08V43.78c0,3.51,1.68,4.52,4.32,4.52h1c2.43,0,4.18-1.08,4.18-4.52V26.38a7.67,7.67,0,0,1,6.54-4.05q5.67,0,5.67,6.88V43.78c0,3.51,1.82,4.52,4.32,4.52h1c2.43,0,4.18-1.08,4.18-4.52V26.38a7.67,7.67,0,0,1,6.54-4.05c3.85,0,5.74,2.22,5.74,6.68V43.78c0,3.51,1.68,4.52,4.31,4.52h.95c2.49,0,4.25-1.08,4.25-4.52V27.46c0-7.83-3.51-13.09-11.87-13.09-5.47,0-8.91,3-11.13,6.74-1.56-4.25-5.06-6.74-10.53-6.74A11.7,11.7,0,0,0,692,20Z"/><path class="cls-2" d="M282.09,59.81c-3.89,0-8.67-1.33-10.39-4.14-.88-1.43-1.33-3.82,1.53-7.05l.45-.51.63.28a19.7,19.7,0,0,0,4.31,1.35c2.93.55,5,.18,6.24-1.15a8.29,8.29,0,0,0,1.38-2,4.06,4.06,0,0,1-2.84-2.44L272.06,17.84a1.4,1.4,0,0,1,.24-1.35,7.82,7.82,0,0,1,5.82-2.72c3,0,4.95,1.65,6.21,5.36l6.21,16.35,5.51-16.28c1.09-3.59,3.16-5.43,6.15-5.43a8.11,8.11,0,0,1,5.72,2.64,1.31,1.31,0,0,1,.3,1.18l-12,31.51c-1.46,3.63-4.18,8.63-11,10.36A12.94,12.94,0,0,1,282.09,59.81Zm-7.88-9.44c-1.34,1.69-1.64,3.14-.92,4.32,1.7,2.78,8.26,3.79,11.47,3h0c5.89-1.51,8.27-5.72,9.68-9.23l11.85-31a6.54,6.54,0,0,0-4.1-1.75c-1.34,0-3.25.43-4.37,4.13L290.65,41l-8.08-21.26c-1.16-3.42-2.62-4.12-4.45-4.12a6.21,6.21,0,0,0-4.19,1.8l11.18,26a2.51,2.51,0,0,0,2.37,1.53l.58.08.18.55a2.07,2.07,0,0,1-.15,1.46,9.6,9.6,0,0,1-1.85,2.83c-1.78,1.84-4.37,2.4-8,1.72A20.32,20.32,0,0,1,274.21,50.37Zm-18.15-.53a13.19,13.19,0,0,1-9.82-4.06c-.57,2.27-2.23,3.45-4.89,3.45h-1c-3.53,0-5.25-1.78-5.25-5.45V2.23c0-1.54,3.3-2,4.51-2,2.57,0,6.87,1.11,6.87,8.56v8.48a13.7,13.7,0,0,1,9.72-3.82c9.68,0,16.18,7.29,16.18,18.14S265.66,49.84,256.06,49.84ZM244.6,39.73l1.75,3a10.9,10.9,0,0,0,9.71,5.2c8.64,0,14.44-6.59,14.44-16.4S264.75,15.3,256.19,15.3a11.67,11.67,0,0,0-9.89,5l-1.7,2.37V8.77c0-4.44-1.68-6.69-5-6.69a6.5,6.5,0,0,0-2.64.55V43.78c0,3,1.29,3.58,3.38,3.58h1c2.31,0,3.25-1,3.25-3.58Zm9.16,2.56a8.81,8.81,0,0,1-9.16-8.83V27.2l.08-.18a9.42,9.42,0,0,1,9.15-6c5.6,0,9.37,4.28,9.37,10.64S259.41,42.29,253.76,42.29Zm-7.29-14.71v5.88c0,4,3.07,7,7.29,7,4.6,0,7.57-3.42,7.57-8.72s-2.94-8.77-7.5-8.77A7.65,7.65,0,0,0,246.47,27.58Z"/></svg>