<svg xmlns="http://www.w3.org/2000/svg" xmlns:xlink="http://www.w3.org/1999/xlink" viewBox="0 0 503.92 351.37"><defs><style>.cls-1{isolation:isolate;}.cls-2{fill:#fff;}.cls-3{opacity:0.4;mix-blend-mode:multiply;fill:url(#radial-gradient);}.cls-4{fill:#005ea6;}</style><radialGradient id="radial-gradient" cx="251.96" cy="-7784.06" r="243.3" gradientTransform="translate(0 1162.16) scale(1 0.11)" gradientUnits="userSpaceOnUse"><stop offset="0" stop-color="#010101"/><stop offset="1" stop-color="#fff" stop-opacity="0"/></radialGradient></defs><g class="cls-1"><g id="Layer_1" data-name="Layer 1"><circle class="cls-2" cx="256.75" cy="156.73" r="146.99"/><ellipse class="cls-3" cx="251.96" cy="315.15" rx="243.3" ry="26.47"/><path class="cls-4" d="M192.58,245.8c8.75-9.5,16.32-17.79,24-26,8.31-8.88,16.6-17.78,25.15-26.43,2.3-2.33,3-4.3,1.57-7.17-2.91-5.94-1.22-11.5,2.36-16.31,6.44-8.65,13.27-17,20.09-25.39,2.14-2.61,4.84-4.79,8.27-1.69s2.19,6.19-.2,9.16c-6.2,7.7-12.45,15.36-18.68,23l.58,1.87c1.56-.55,3.67-.63,4.59-1.72,5.72-6.74,11.12-13.75,16.71-20.6,2.2-2.7,4.76-5.74,8.5-2.69,3.57,2.92,2.72,6.17-.14,9.53-5.6,6.57-11,13.34-16.22,20.2-.9,1.18-.74,3.17-1.07,4.79,1.48-.75,3.4-1.13,4.38-2.3,5.68-6.76,10.85-14,16.86-20.43,1.67-1.79,5.59-1.49,8.48-2.15,0,2.7,1.2,6.22-.06,8a274.71,274.71,0,0,1-20.58,25.75c-2.93,3.15-8.35,6.22-12.22,5.77-7.08-.83-10.64,2.6-14.37,7.09,26.68,4.49,52.89-.93,62-29.72,1.89-6,2.12-12.61,2.38-19,.38-9.54.1-19.11.1-29.7-11.18,0-22.23-.73-33.12.23-9,.79-18.37,2.26-26.6,5.73-21.65,9.14-31.53,27.82-36.82,49.53-.38,1.55-.89,3.06-1.75,6-3.25-26.94,2.35-50.64,19.91-67.13a64.25,64.25,0,0,1,43.62-17.76c19.09-.41,38.21-.09,58.24-.09V120c0,14.79.46,29.59-.12,44.34-.77,19.6-6,37.66-21.28,51.37-9.87,8.84-21.44,14.48-34.55,15.63a402.88,402.88,0,0,1-40.82,1.28c-6.6-.1-11.38,1.41-14,7.55-2,4.68-5.19,6.06-10.14,5.79C209.88,245.5,202.08,245.8,192.58,245.8Z"/><path class="cls-4" d="M227,126c-14.26,14.35-34,17-51.35,8,1.37-10.17,7.22-17.94,16.07-21.73,8.41-3.6,18-4.41,28.13-6.68,0-1,.17-3.52,0-6-.78-10.23,5.58-16.3,12.77-21.75a4.89,4.89,0,0,1,4.51-.08c11.6,8,17.4,26.56,1.79,37.84-.81-5.71-1.6-11.41-2.64-18.77-7.55,8.57-6.27,16.72-4.27,25.49-11.88-4.25-22.15-3-31.86,3.74Z"/></g></g></svg>