<svg xmlns="http://www.w3.org/2000/svg" xmlns:xlink="http://www.w3.org/1999/xlink" viewBox="0 0 503.92 351.37"><defs><style>.cls-1{isolation:isolate;}.cls-2{opacity:0.4;mix-blend-mode:multiply;fill:url(#radial-gradient);}.cls-3{fill:#dce8f5;}.cls-4{fill:#005da3;}</style><radialGradient id="radial-gradient" cx="251.96" cy="22836.54" r="243.3" gradientTransform="translate(0 -2169.77) scale(1 0.11)" gradientUnits="userSpaceOnUse"><stop offset="0" stop-color="#010101"/><stop offset="1" stop-color="#fff" stop-opacity="0"/></radialGradient></defs><g class="cls-1"><g id="Layer_1" data-name="Layer 1"><ellipse class="cls-2" cx="251.96" cy="315.15" rx="243.3" ry="26.47"/><circle class="cls-3" cx="251.96" cy="156.73" r="146.99"/><path class="cls-4" d="M340.58,208.51a2.68,2.68,0,0,0,2.67-2.67v-4.1a17.05,17.05,0,0,0-11.74-16.23L314.79,180v-5.79a20,20,0,0,0,9.73-17.13V145.56a20,20,0,0,0-35.87-12.05,17,17,0,0,0-9.74-8.16l-16.71-5.5v-5.79a20,20,0,0,0,9.73-17.13V85.4a20,20,0,0,0-39.94,0V96.93a20,20,0,0,0,9.73,17.13v5.79L225,125.35a17,17,0,0,0-9.74,8.16,20,20,0,0,0-35.87,12.05v11.53a20,20,0,0,0,9.73,17.13V180l-16.72,5.5a17,17,0,0,0-11.74,16.23v4.1a2.68,2.68,0,0,0,5.35,0v-4.1a11.72,11.72,0,0,1,8.06-11.15l15.66-5.15a10.24,10.24,0,0,0,19.25,0l15.66,5.15a11.71,11.71,0,0,1,7.32,7l-7,2.29a17.05,17.05,0,0,0-11.74,16.23v3.11H181.15v-6.7a2.68,2.68,0,0,0-5.35,0v6.7H166v-.93a2.68,2.68,0,0,0-5.35,0v3.6a2.66,2.66,0,0,0,2.67,2.67h49.92v20.75a2.68,2.68,0,0,0,2.68,2.67h72a2.68,2.68,0,0,0,2.68-2.67v-3.58a2.68,2.68,0,0,0-5.35,0v.9h-9.78V227a2.68,2.68,0,0,0-5.35,0v15.7H233.74V227a2.68,2.68,0,0,0-5.35,0v15.7h-9.78V216.15A11.71,11.71,0,0,1,226.68,205l15.65-5.15a10.24,10.24,0,0,0,19.25,0L277.24,205a11.71,11.71,0,0,1,8.07,11.15v13.14a2.68,2.68,0,0,0,5.35,0V224.6h49.92a2.67,2.67,0,0,0,2.67-2.67v-3.6a2.68,2.68,0,0,0-5.35,0v.93h-9.78v-6.7a2.68,2.68,0,0,0-5.35,0v6.7H290.66v-3.11a17,17,0,0,0-11.75-16.23l-7-2.29a11.71,11.71,0,0,1,7.32-7l15.66-5.15a10.24,10.24,0,0,0,19.25,0l15.66,5.15a11.72,11.72,0,0,1,8.06,11.15v4.1a2.68,2.68,0,0,0,2.68,2.67Zm-36-77.57a14.64,14.64,0,0,1,14.62,14.62v11.53a14.62,14.62,0,0,1-29.23,0V145.56a14.64,14.64,0,0,1,14.61-14.62Zm-67.21-34V85.4a14.62,14.62,0,1,1,29.24,0V96.93a14.62,14.62,0,1,1-29.24,0Zm14.62,20a19.73,19.73,0,0,0,4.89-.61v5.51a4.89,4.89,0,0,1-9.78,0v-5.51a19.73,19.73,0,0,0,4.89.61Zm-25.28,13.54,15.65-5.15a10.24,10.24,0,0,0,19.25,0l15.66,5.15a11.67,11.67,0,0,1,8,10,19.9,19.9,0,0,0-.66,5.09v11.53a19.19,19.19,0,0,0,.1,2H271.9a20,20,0,0,0-39.88,0H219.23a19.19,19.19,0,0,0,.1-2V145.56a19.9,19.9,0,0,0-.66-5.09,11.64,11.64,0,0,1,8-10ZM252,186.11a14.63,14.63,0,0,1-14.62-14.61V160a14.62,14.62,0,1,1,29.24,0V171.5A14.63,14.63,0,0,1,252,186.11Zm-67.21-29V145.56a14.62,14.62,0,1,1,29.23,0v11.53a14.62,14.62,0,0,1-29.23,0Zm19.51,24.85a4.9,4.9,0,0,1-9.79,0v-5.49a20.27,20.27,0,0,0,9.79,0Zm22.06,3.57L209.6,180v-5.79a20,20,0,0,0,8.32-9.78H232v7.06a20,20,0,0,0,9.73,17.13v5.79L237.05,196a17,17,0,0,0-10.73-10.44ZM252,201.24a4.89,4.89,0,0,1-4.89-4.89v0h0v-5.46a19.91,19.91,0,0,0,9.78,0v5.5a4.89,4.89,0,0,1-4.89,4.89Zm25.64-15.73A17,17,0,0,0,266.87,196l-4.67-1.53v-5.79a20,20,0,0,0,9.73-17.13v-7.06H286a20,20,0,0,0,8.31,9.78V180Zm26.95,1.32a4.9,4.9,0,0,1-4.89-4.89v-5.49a20.23,20.23,0,0,0,9.78,0v5.49a4.89,4.89,0,0,1-4.89,4.89Zm0,0"/></g></g></svg>