<svg xmlns="http://www.w3.org/2000/svg" xmlns:xlink="http://www.w3.org/1999/xlink" viewBox="0 0 503.92 351.37"><defs><style>.cls-1{isolation:isolate;}.cls-2{fill:#fff;}.cls-3{opacity:0.4;mix-blend-mode:multiply;fill:url(#radial-gradient);}.cls-4{fill:#005ea6;}</style><radialGradient id="radial-gradient" cx="251.96" cy="-7784.06" r="243.3" gradientTransform="translate(0 1162.16) scale(1 0.11)" gradientUnits="userSpaceOnUse"><stop offset="0" stop-color="#010101"/><stop offset="1" stop-color="#fff" stop-opacity="0"/></radialGradient></defs><g class="cls-1"><g id="Layer_1" data-name="Layer 1"><circle class="cls-2" cx="256.75" cy="156.73" r="146.99"/><ellipse class="cls-3" cx="251.96" cy="315.15" rx="243.3" ry="26.47"/><path class="cls-4" d="M224.19,191.63h6.28v-6.45a7.85,7.85,0,0,0-1.57-15.55h-3.14a1.58,1.58,0,0,1,0-3.15h11V160.2h-6.29v-6.29h-6.28v6.44a7.86,7.86,0,0,0,1.57,15.56h3.14a1.57,1.57,0,1,1,0,3.14h-11v6.29h6.29Z"/><path class="cls-4" d="M340.49,144.48a3.14,3.14,0,0,0-3.15-3.14H318.48a3.14,3.14,0,0,0-3.14,3.14v12.57H299.62a3.15,3.15,0,0,0-3.14,3.15v9.43H280.76a3.14,3.14,0,0,0-3.14,3.14v29.66L265,187.23a35.34,35.34,0,0,0-1.73-32.86l12.36-9.89h20.9v-6.29h-22a3.19,3.19,0,0,0-2,.69l-13,10.39-.27-.32-15.72-17.68,2.84-7.1a6.55,6.55,0,0,0-8.15-8.64.27.27,0,0,1-.3-.1l-3.1-4.65a9,9,0,0,0-15,0l-3.1,4.65a.27.27,0,0,1-.3.1,6.54,6.54,0,0,0-8.15,8.64l2.84,7.1L195.4,149a35.33,35.33,0,0,0-6.5,36.36L159.4,208l3.84,5,6.45-5,24.95,33.27-10.06,7.54,3.77,5,12.27-9.2,21.66-9.28a3.14,3.14,0,0,0,1.57-1.48l5.68-11.36,26.28-7.89A8.54,8.54,0,0,0,257.59,199l4-6,13.61,16.33a3.15,3.15,0,0,0,2.41,1.13h69.15V204.2h-6.28ZM214.17,121.56a.23.23,0,0,1,.27-.07,6.55,6.55,0,0,0,7.52-2.58l3.1-4.65a2.73,2.73,0,0,1,4.54,0l3.1,4.65a6.55,6.55,0,0,0,7.52,2.58.27.27,0,0,1,.33.35l-2.78,6.92H216.88l-2.77-6.92a.23.23,0,0,1,.06-.28Zm-21.42,50.88a29,29,0,0,1,7.35-19.31l16.07-18.08h4.11a19.1,19.1,0,0,0-2.22,16.71l6-2a12.89,12.89,0,0,1,3.13-13.24l.18-.18.18.18a12.86,12.86,0,0,1,3.12,13.24l6,2a19.1,19.1,0,0,0-2.22-16.71h4.11l16.07,18.08A29.08,29.08,0,0,1,257,188.57l-6.23,9.34H210.41l2.94-5.88a13.48,13.48,0,0,0,1.41-5.94A10.19,10.19,0,0,0,198.37,178l-4.24,3.26a29.47,29.47,0,0,1-1.38-8.84ZM254,208.63l-27.58,8.28a3.13,3.13,0,0,0-1.91,1.6l-5.77,11.54-18.68,8-25.4-33.87L202.2,183a3.89,3.89,0,0,1,6.27,3.08,6.93,6.93,0,0,1-.74,3.13l-5.21,10.43a3.14,3.14,0,0,0,2.81,4.55h48a2.26,2.26,0,0,1,.65,4.43Zm29.9-32.72h12.57V204.2H283.91Zm18.86-12.57h12.57V204.2H302.77Zm18.86,40.86V147.62H334.2V204.2Z"/><path class="cls-4" d="M312.2,65.9a34.58,34.58,0,1,0,34.57,34.57A34.57,34.57,0,0,0,312.2,65.9Zm28.11,31.43H327.6a15.79,15.79,0,0,0-12.26-12.26V72.36a28.36,28.36,0,0,1,25,25Zm-15,11.8a15.56,15.56,0,0,0,2.3-5.51h12.71a28.19,28.19,0,0,1-6,14.5ZM312.2,91a9.44,9.44,0,1,1-9.43,9.43A9.43,9.43,0,0,1,312.2,91Zm-28.29,9.43a28.33,28.33,0,0,1,25.14-28.11V85.07a15.72,15.72,0,1,0,11.81,28.51l9,9a28.26,28.26,0,0,1-45.93-22.09Z"/></g></g></svg>