<svg xmlns="http://www.w3.org/2000/svg" xmlns:xlink="http://www.w3.org/1999/xlink" viewBox="0 0 503.92 351.37"><defs><style>.cls-1{fill:#dce8f5;}.cls-2{isolation:isolate;}.cls-3{clip-path:url(#clip-path);}.cls-4{fill:#005da3;}.cls-5{opacity:0.4;mix-blend-mode:multiply;fill:url(#radial-gradient);}</style><clipPath id="clip-path"><circle class="cls-1" cx="256.75" cy="156.73" r="122.74"/></clipPath><radialGradient id="radial-gradient" cx="251.96" cy="22836.54" r="243.3" gradientTransform="translate(0 -2169.77) scale(1 0.11)" gradientUnits="userSpaceOnUse"><stop offset="0" stop-color="#010101"/><stop offset="1" stop-color="#fff" stop-opacity="0"/></radialGradient></defs><g class="cls-2"><g id="Layer_1" data-name="Layer 1"><circle class="cls-1" cx="256.75" cy="156.73" r="146.99"/><circle class="cls-1" cx="256.75" cy="156.73" r="122.74"/><g class="cls-3"><path class="cls-4" d="M253.53,87.77c.83,1.91,2.22,3.78,2.37,5.74a75.78,75.78,0,0,1,0,13.64c-.17,1.7-2,4.41-3.26,4.58-2.72.33-3.25-2.2-3.21-4.66.08-4.69-.2-9.4.14-14.07.12-1.79,1.52-3.49,2.34-5.23Z"/><path class="cls-4" d="M263.56,278.78c0-3.91.56-7.76-.16-11.34s-2.71-6.81-4.19-10.32A16,16,0,0,1,261,256c3.64-1.6,5.82-4,5-8.33a13.67,13.67,0,0,1,0-2.48c0-8.75-.83-9.68-9.56-11.35-5.6-1.07-10.68.53-15.59,2.89a3.49,3.49,0,0,0-1.43,2.56c-.15,3.87-.18,7.76,0,11.63a4.69,4.69,0,0,0,1.75,2.92,69.31,69.31,0,0,0,6,4c-5.14,5.44-4.85,12.21-4.82,19,0,.85-1.76,2.45-2.72,2.46-20.06.14-40.13.11-60.19.1-2.91,0-4.14-1.34-4.09-4.38.13-8.44,0-16.89.05-25.34.06-16.14,12.48-29.44,28.58-29.6,32.38-.3,64.76-.21,97.14,0,14.3.08,29,11.92,29,30.67,0,8,0,16.07,0,24.1,0,2.84-1.08,4.56-4.06,4.56q-30.51,0-61-.06A6.65,6.65,0,0,1,263.56,278.78Z"/><path class="cls-4" d="M277.25,186.83c5.69.23,5.08,4.06,4.79,7.29-.58,6.41-6.14,1.94-9,4.34-2.76,9.61-9.65,16.49-20.92,16.45-7.31,0-16.82-4.65-19.73-16.68-2.79-2.17-8.7,2.56-9-4.37-.12-3-1.15-7,5.44-6.4-12.23-11.35-15.55-24.34-11.47-39.24a34.13,34.13,0,0,1,13-18.64c17.78-13.23,36.08-8.12,47.62,2.53,5,4.63,9.28,10.26,10.1,17.13a79.47,79.47,0,0,1-.12,20.5C287.07,176.5,282.82,182,277.25,186.83Zm-9,.61c2.1-2.66,4.11-4.74,5.57-7.16,2.83-4.66,6.56-9.22,7.76-14.33,3.24-13.87-2.06-24.74-13.86-32.66-8.4-5.65-21.5-5.29-31.62,1.19-12.48,8-17.1,25.72-9.68,38.33,2.85,4.82,6.33,9.27,9.65,13.79a3.52,3.52,0,0,0,2.54.8C248.69,187.46,258.77,187.44,268.24,187.44Z"/><path class="cls-4" d="M292.41,101.66a3.78,3.78,0,0,1-.3,1.2c-3.41,5.47-6.75,11-10.42,16.29-.53.77-3.19,1-4,.43-1-.81-2-3.24-1.49-4.12,3.19-5.59,6.72-11,10.33-16.31.48-.7,2.18-1,3.18-.81a19.16,19.16,0,0,1,4.14,1.83Z"/><path class="cls-4" d="M225.38,120.19a10.44,10.44,0,0,1-2.49-2.11c-2.92-4.32-5.67-8.76-8.5-13.14-1.4-2.17-2-4.33.35-6.21,2.57-2,4.08-.13,5.33,1.76,3,4.59,6.05,9.17,8.77,13.94C230.53,117.39,229,120.15,225.38,120.19Z"/></g><ellipse class="cls-5" cx="251.96" cy="315.15" rx="243.3" ry="26.47"/></g></g></svg>