<svg xmlns="http://www.w3.org/2000/svg" xmlns:xlink="http://www.w3.org/1999/xlink" viewBox="0 0 503.92 351.37"><defs><style>.cls-1{isolation:isolate;}.cls-2{opacity:0.4;mix-blend-mode:multiply;fill:url(#radial-gradient);}.cls-3{fill:#dce8f5;}.cls-4{fill:#005da3;}</style><radialGradient id="radial-gradient" cx="251.96" cy="22836.54" r="243.3" gradientTransform="translate(0 -2169.77) scale(1 0.11)" gradientUnits="userSpaceOnUse"><stop offset="0" stop-color="#010101"/><stop offset="1" stop-color="#fff" stop-opacity="0"/></radialGradient></defs><g class="cls-1"><g id="Layer_1" data-name="Layer 1"><ellipse class="cls-2" cx="251.96" cy="315.15" rx="243.3" ry="26.47"/><circle class="cls-3" cx="251.96" cy="156.73" r="146.99"/><rect class="cls-4" x="204.05" y="136.25" width="5.99" height="5.99"/><rect class="cls-4" x="233.99" y="136.25" width="5.99" height="5.99"/><path class="cls-4" d="M339.22,169.21l-11.7-1.67a42.3,42.3,0,0,0-2-4.79l7.08-9.44a3,3,0,0,0-.28-3.91l-12.7-12.71a3,3,0,0,0-1.82-.84V107a23.94,23.94,0,0,0,9-18.69,23.69,23.69,0,0,0-13.69-21.63,3,3,0,0,0-4.27,2.71V86.18l-6,2-6-2V69.42a3,3,0,0,0-4.27-2.7,23.7,23.7,0,0,0-13.69,21.62,24,24,0,0,0,9,18.69v20.23h-9a3,3,0,0,0-3,2.57L274,143.39l5.92.85,1.57-11h12.78l1.56,11a3,3,0,0,0,2.13,2.45,35.23,35.23,0,0,1,7.19,3,3,3,0,0,0,3.24-.24l8.86-6.64,9,9-6.66,8.86a3,3,0,0,0-.23,3.24,35.77,35.77,0,0,1,3,7.19,3,3,0,0,0,2.45,2.12l11,1.57v12.78l-11,1.56a3,3,0,0,0-2.45,2.13,35.77,35.77,0,0,1-3,7.19,3,3,0,0,0,.23,3.23l6.65,8.87-9,9-8.85-6.67a3,3,0,0,0-3.24-.23,35.77,35.77,0,0,1-7.19,3,3,3,0,0,0-2.12,2.45l-1.56,11H281.9V216.4a32.82,32.82,0,0,0-1.35-9.34,27.28,27.28,0,1,0-19.14-21.15l-.21-.09L237,176.14v-4.6a33.34,33.34,0,0,0,10.42-8.35H255a9,9,0,0,0,9-9v-6.54a9,9,0,0,0,6-8.43v-9a9,9,0,0,0-6-8.43v-3.55a41.92,41.92,0,1,0-83.84,0v3.55a9,9,0,0,0-6,8.43v9a9,9,0,0,0,9,9h6c.19,0,.38,0,.57,0a33,33,0,0,0,17.4,23.36v4.6l-24.21,9.68a32.8,32.8,0,0,0-20.71,30.58V244a3,3,0,0,0,3,3H278.91a3,3,0,0,0,3-3v-9h15a3,3,0,0,0,3-2.56l1.67-11.7a44.23,44.23,0,0,0,4.79-2l9.44,7.08a3,3,0,0,0,3.91-.28l12.7-12.7a3,3,0,0,0,.28-3.92l-7.08-9.43a41.7,41.7,0,0,0,2-4.8l11.7-1.67a3,3,0,0,0,2.57-3v-18a3,3,0,0,0-2.57-3ZM306.28,143.5c-.14-.07-.3-.11-.44-.18v-37h-6v23.75l0-.22a3,3,0,0,0-3-2.57h-3V105.53a3,3,0,0,0-1.29-2.46,18,18,0,0,1-1.71-28.14V88.34a3,3,0,0,0,2.05,2.84l9,3a3.05,3.05,0,0,0,1.89,0l9-3a3,3,0,0,0,2-2.84V74.93a18,18,0,0,1-1.71,28.15,3,3,0,0,0-1.29,2.45v33.81Zm-39.35,37.66a21.11,21.11,0,1,1,10,17.79,32.64,32.64,0,0,0-7.82-8.62,20.54,20.54,0,0,1-2.16-9.17Zm-12-23.95h-3.63a32.9,32.9,0,0,0,3.07-9c.19,0,.37,0,.56,0h3v6a3,3,0,0,1-3,3Zm-6-32.94a9.05,9.05,0,0,1-7.19-3.59l-5.39-7.19a3,3,0,0,0-2-1.17,3,3,0,0,0-2.25.63l-10.05,8a15,15,0,0,1-9.34,3.29H195.07v-3a26.95,26.95,0,1,1,53.9,0Zm15,15a3,3,0,0,1-3,3h-6v-15h6a3,3,0,0,1,3,3ZM222,82.35A36,36,0,0,1,258,118.28v3h-3a32.94,32.94,0,1,0-65.87,0h-3v-3A36,36,0,0,1,222,82.35Zm-38.93,59.89a3,3,0,0,1-3-3v-9a3,3,0,0,1,3-3h6v15Zm12,0v-12h17.66a21.12,21.12,0,0,0,13.1-4.59l7.63-6.12,3.53,4.72a15,15,0,0,0,12,6v12a26.89,26.89,0,0,1-4.56,15H222v6h16.9a26.92,26.92,0,0,1-43.85-20.95Zm27,32.93a33.24,33.24,0,0,0,9-1.27v4.27a9,9,0,1,1-18,0V173.9a33.24,33.24,0,0,0,9,1.27ZM275.91,241H258V208.11h-6V241H192.08V208.11h-6V241h-18V216.4a26.84,26.84,0,0,1,16.94-25l22.65-9a14.88,14.88,0,0,0,28.62,0l22.64,9a26.81,26.81,0,0,1,16.94,25Zm0,0"/><rect class="cls-4" x="284.9" y="139.24" width="5.99" height="5.99"/><rect class="cls-4" x="284.9" y="217.09" width="5.99" height="5.99"/><path class="cls-4" d="M311.18,208.68l4.23-4.23,4.23,4.23-4.23,4.24Zm0,0"/><rect class="cls-4" x="323.82" y="178.17" width="5.99" height="5.99"/><path class="cls-4" d="M311.18,153.64l4.23-4.24,4.24,4.24-4.24,4.23Zm0,0"/></g></g></svg>