<svg xmlns="http://www.w3.org/2000/svg" xmlns:xlink="http://www.w3.org/1999/xlink" viewBox="0 0 503.92 351.37"><defs><style>.cls-1{isolation:isolate;}.cls-2{opacity:0.4;mix-blend-mode:multiply;fill:url(#radial-gradient);}.cls-3{fill:#dce8f5;}.cls-4,.cls-5{fill:none;stroke:#005da3;stroke-miterlimit:10;}.cls-4{stroke-width:4px;}.cls-5{stroke-width:2.95px;}.cls-6{fill:#005da3;}.cls-7{fill:#fff;}</style><radialGradient id="radial-gradient" cx="251.96" cy="22836.54" r="243.3" gradientTransform="translate(0 -2169.77) scale(1 0.11)" gradientUnits="userSpaceOnUse"><stop offset="0" stop-color="#010101"/><stop offset="1" stop-color="#fff" stop-opacity="0"/></radialGradient></defs><g class="cls-1"><g id="Layer_1" data-name="Layer 1"><ellipse class="cls-2" cx="251.96" cy="315.15" rx="243.3" ry="26.47"/><circle class="cls-3" cx="251.96" cy="156.73" r="146.99"/><rect class="cls-4" x="222.59" y="153.26" width="128.83" height="44.42" rx="5.6"/><polygon class="cls-4" points="228.08 153.87 236.63 144.71 331.42 144.71 346.23 153.41 228.08 153.87"/><path class="cls-4" d="M250.45,153.1h73.12a0,0,0,0,1,0,0V164.3a5,5,0,0,1-5,5H255.43a5,5,0,0,1-5-5V153.1A0,0,0,0,1,250.45,153.1Z"/><circle class="cls-5" cx="337.38" cy="163.89" r="3.66"/><path class="cls-6" d="M265.73,88.15H248.67a6.89,6.89,0,0,0-6.87-6.43h-5.17a15.79,15.79,0,0,0-10.52-10s-3.46-.6-3.69-.59a32.22,32.22,0,0,0-3.7.25S214,73.7,212.1,75.55a15.6,15.6,0,0,0-3.89,6.17H203a6.91,6.91,0,0,0-6.88,6.43h-17a11.19,11.19,0,0,0-11.18,11.17V224.78a11.19,11.19,0,0,0,11.18,11.16h86.62a11.19,11.19,0,0,0,11.18-11.16V99.32A11.19,11.19,0,0,0,265.73,88.15Z"/><path class="cls-7" d="M205.81,91.38h6.41a4.84,4.84,0,0,0,4.84-4.73,6.07,6.07,0,0,1,12.13,0A4.83,4.83,0,0,0,234,91.38h6.41V96.7H205.81Z"/><path class="cls-3" d="M268.64,224.78a1.51,1.51,0,0,1-1.51,1.5h-88a1.51,1.51,0,0,1-1.51-1.5V99.32a1.51,1.51,0,0,1,1.51-1.5h17v1a7.54,7.54,0,0,0,7.53,7.53h38.9a7.54,7.54,0,0,0,7.53-7.53v-1h17a1.51,1.51,0,0,1,1.51,1.5Z"/><path class="cls-6" d="M194.39,138a5,5,0,0,0,6.89-.4l12.11-13.82a4.83,4.83,0,0,0-7.28-6.36l-8.87,10.12-2.38-2.15a4.84,4.84,0,0,0-6.49,7.17Z"/><path class="cls-6" d="M253.9,129.44H226a4.83,4.83,0,1,0,0,9.66h27.9a4.83,4.83,0,1,0,0-9.66Z"/><path class="cls-6" d="M253.9,149.48H191.22a4.83,4.83,0,1,0,0,9.66H253.9a4.83,4.83,0,1,0,0-9.66Z"/><path class="cls-6" d="M194.39,193.43a5,5,0,0,0,6.89-.4l12.11-13.83a4.83,4.83,0,0,0-7.28-6.36L197.24,183l-2.38-2.15a4.83,4.83,0,1,0-6.49,7.16Z"/><path class="cls-6" d="M253.9,184.8H226a4.84,4.84,0,1,0,0,9.67h27.9a4.84,4.84,0,1,0,0-9.67Z"/><path class="cls-6" d="M253.9,204.56H191.22a4.83,4.83,0,1,0,0,9.66H253.9a4.83,4.83,0,1,0,0-9.66Z"/></g></g></svg>