<svg xmlns="http://www.w3.org/2000/svg" xmlns:xlink="http://www.w3.org/1999/xlink" viewBox="0 0 503.92 351.37"><defs><style>.cls-1{isolation:isolate;}.cls-2{opacity:0.4;mix-blend-mode:multiply;fill:url(#radial-gradient);}.cls-3{fill:#dce8f5;}.cls-4{fill:#005da3;}.cls-5{fill:#fff;}</style><radialGradient id="radial-gradient" cx="251.96" cy="22836.54" r="243.3" gradientTransform="translate(0 -2169.77) scale(1 0.11)" gradientUnits="userSpaceOnUse"><stop offset="0" stop-color="#010101"/><stop offset="1" stop-color="#fff" stop-opacity="0"/></radialGradient></defs><g class="cls-1"><g id="Layer_1" data-name="Layer 1"><ellipse class="cls-2" cx="251.96" cy="315.15" rx="243.3" ry="26.47"/><circle class="cls-3" cx="251.96" cy="156.73" r="146.99"/><path class="cls-4" d="M243.44,106H227.59a6.43,6.43,0,0,0-6.4-6h-4.8a14.72,14.72,0,0,0-9.78-9.34s-3.22-.56-3.44-.55a27.37,27.37,0,0,0-3.43.24s-4.41,2.2-6.16,3.92A14.66,14.66,0,0,0,190,100h-4.8a6.43,6.43,0,0,0-6.4,6H162.91a10.39,10.39,0,0,0-10.39,10.38V233a10.4,10.4,0,0,0,10.39,10.39h80.53A10.4,10.4,0,0,0,253.83,233V116.35A10.39,10.39,0,0,0,243.44,106Z"/><path class="cls-4" d="M355.87,153.45v-.18a.71.71,0,0,1,0-.14c0-.1,0-.2-.05-.3h0l-5.05-24v0l-5.05-24v0l-5.06-24a2.83,2.83,0,0,0-2.77-2.25H216.42a2.85,2.85,0,0,0-2.78,2.25l-5,24v0l-5.05,24v0l-5.05,24c0,.1,0,.21-.05.31v.07a1.48,1.48,0,0,0,0,.21v11.38a2.84,2.84,0,0,0,2.83,2.84h67.37v16H246.78a2.84,2.84,0,0,0-2.84,2.84V195H216.42a2.84,2.84,0,0,0,0,5.68H337.85a2.84,2.84,0,0,0,0-5.68H310.34v-8.54a2.84,2.84,0,0,0-2.84-2.84H285.67v-16H353a2.84,2.84,0,0,0,2.84-2.84V153.46Zm-142.2-45.27h38.5l-1.29,18.36H209.8Zm44.19,0h38.56l1.29,18.36H256.57Zm36.87-24L296,102.5H258.26l1.29-18.35Zm49.75,42.39H303.4l-1.29-18.36h38.5Zm-46.37,5.67,1.28,18.36H254.88l1.29-18.36Zm7,18.36-1.28-18.36h41.87l3.87,18.36Zm34.34-48.07H301.71l-1.29-18.35h35.13ZM218.72,84.15h35.14l-1.29,18.35H214.86ZM304.66,195h-55v-5.71h55ZM280,183.58h-5.71v-16H280ZM350.2,162H204.08v-5.71H217.6a2.84,2.84,0,0,0,0-5.68H204.74l3.87-18.36h41.87l-1.29,18.36H229.88a2.84,2.84,0,1,0,0,5.68H350.2V162Z"/><path class="cls-5" d="M187.73,109h6a4.5,4.5,0,0,0,4.5-4.41,5.64,5.64,0,0,1,11.28,0A4.49,4.49,0,0,0,214,109h6v4.94H187.73Z"/><path class="cls-3" d="M246.14,233a1.39,1.39,0,0,1-1.39,1.4H162.91a1.4,1.4,0,0,1-1.4-1.4V116.35a1.4,1.4,0,0,1,1.4-1.4h15.83v1a7,7,0,0,0,7,7h36.17a7,7,0,0,0,7-7v-1h15.84a1.4,1.4,0,0,1,1.39,1.4Z"/><path class="cls-4" d="M177.12,152.35a4.63,4.63,0,0,0,6.4-.37l11.26-12.85a4.5,4.5,0,0,0-6.77-5.92l-8.25,9.41-2.21-2a4.49,4.49,0,1,0-6,6.66Z"/><path class="cls-4" d="M232.44,144.35H206.5a4.49,4.49,0,0,0,0,9h25.94a4.49,4.49,0,1,0,0-9Z"/><path class="cls-4" d="M232.44,163H174.17a4.49,4.49,0,1,0,0,9h58.27a4.49,4.49,0,1,0,0-9Z"/><path class="cls-4" d="M177.12,203.84a4.63,4.63,0,0,0,6.4-.37l11.26-12.85A4.5,4.5,0,0,0,188,184.7l-8.25,9.41-2.21-2a4.5,4.5,0,0,0-6,6.67Z"/><path class="cls-4" d="M232.44,195.82H206.5a4.5,4.5,0,0,0,0,9h25.94a4.5,4.5,0,1,0,0-9Z"/><path class="cls-4" d="M232.44,214.19H174.17a4.49,4.49,0,1,0,0,9h58.27a4.49,4.49,0,1,0,0-9Z"/></g></g></svg>